<svg id="Layer_1" data-name="Layer 1" xmlns="http://www.w3.org/2000/svg" viewBox="0 0 172 126.5"><defs><style>.cls-1,.cls-3{fill:#512a80;}.cls-2{fill:#fff;}.cls-3,.cls-4{stroke:#fff;stroke-miterlimit:10;stroke-width:3px;}.cls-4{fill:none;}</style></defs><title>usergroupIcon</title><path class="cls-1" d="M480.5,371a90.36,90.36,0,0,1-35.5-7.19v-2.73l-1.69.21a91,91,0,0,1-46.81-6.48V331a23.62,23.62,0,0,1,23-23.49l1.47,0v-15.7l-.75-.43A23.5,23.5,0,1,1,455.5,271c0,.13,0,.27,0,.4l-.27,4.5L454.1,279a23.5,23.5,0,0,1-10.35,12.35l-.75.43V307.5h2a23.39,23.39,0,0,1,18.28,8.78l.56.69.87-.15a22.28,22.28,0,0,1,3.79-.32H471v-15l-.84-.41A23.33,23.33,0,0,1,457,280c0-.13,0-.27,0-.4l.27-4.5,1.12-3.1a23.51,23.51,0,0,1,44.2,0l1.12,3.1.27,4.5c0,.13,0,.27,0,.4a23.33,23.33,0,0,1-13.16,21.1l-.84.41v15h3.5a22.28,22.28,0,0,1,3.79.32l.87.15.56-.69A23.39,23.39,0,0,1,517,307.5h3V292.73l-.87-.4A23.63,23.63,0,0,1,506.9,279l-1.12-3.1-.27-4.5c0-.13,0-.27,0-.4a23.5,23.5,0,1,1,35.25,20.35l-.75.43V307.5h2A23.52,23.52,0,0,1,565.5,331v23.39a91.21,91.21,0,0,1-46.83,7l-1.67-.19v2.17A90.39,90.39,0,0,1,480.5,371Z" transform="translate(-395 -246)"/><path class="cls-2" d="M529,249a22,22,0,0,1,11,41.05l-1.5.87V309H542a22,22,0,0,1,22,22v22.4a89.66,89.66,0,0,1-45.15,6.52l-3.35-.39v2.87a89.78,89.78,0,0,1-69,.41v-3.44l-3.38.43a86.91,86.91,0,0,1-11.12.7,88.87,88.87,0,0,1-34-6.69V331a22.11,22.11,0,0,1,21.56-22l2.94-.06v-18l-1.5-.87A22,22,0,1,1,454,271v.3l-.27,4.31-1,2.88A22,22,0,0,1,443,290.05l-1.5.87V309H445a22,22,0,0,1,17.12,8.22l1.1,1.38,1.74-.3a20.37,20.37,0,0,1,3.54-.3h4V300.58l-1.68-.82A21.87,21.87,0,0,1,458.5,280v-.3l.27-4.31,1-2.88a22,22,0,0,1,41.38,0l1,2.88.27,4.31v.3a21.87,21.87,0,0,1-12.32,19.76l-1.68.82V318h5a20.37,20.37,0,0,1,3.54.3l1.74.3,1.1-1.38A22,22,0,0,1,517,309h4.5V291.77l-1.74-.8a22.12,22.12,0,0,1-11.45-12.48l-1-2.87L507,271.3V271a22,22,0,0,1,22-22m0-3a25,25,0,0,0-25,25c0,.16,0,.33,0,.49a25,25,0,0,0-47,0c0-.16,0-.33,0-.49a25,25,0,1,0-37.5,21.65V306A25.08,25.08,0,0,0,395,331v24.8a92.18,92.18,0,0,0,37,7.7,91,91,0,0,0,11.5-.72v2a92.76,92.76,0,0,0,75-.44V362.9a91,91,0,0,0,10.5.6,92.21,92.21,0,0,0,38-8.14V331a25.07,25.07,0,0,0-25-25h-.5V292.65A25,25,0,0,0,529,246Zm-37.5,69V302.45a25,25,0,0,0,14-22.45c0-.16,0-.33,0-.49a25,25,0,0,0,13,14.18V306H517a25,25,0,0,0-19.45,9.34,23.55,23.55,0,0,0-4.05-.34Zm-47-9V292.65a25,25,0,0,0,11-13.14c0,.16,0,.33,0,.49a25,25,0,0,0,14,22.45V315h-1a23.55,23.55,0,0,0-4.05.34A25,25,0,0,0,445,306Z" transform="translate(-395 -246)"/><path class="cls-3" d="M419.5,305.5" transform="translate(-395 -246)"/><path class="cls-3" d="M419.5,292.5" transform="translate(-395 -246)"/><line class="cls-4" x1="24.5" y1="60.5" x2="24.5" y2="60.01"/><line class="cls-4" x1="24.5" y1="46.65" x2="24.5" y2="46.5"/><line class="cls-4" x1="49.5" y1="60.5" x2="49.5" y2="60"/><line class="cls-4" x1="49.5" y1="46.65" x2="49.5" y2="46.5"/><line class="cls-4" x1="74.5" y1="69.5" x2="74.5" y2="69"/><line class="cls-4" x1="74.5" y1="56.45" x2="74.5" y2="55"/><line class="cls-4" x1="96.5" y1="69.5" x2="96.5" y2="69"/><line class="cls-4" x1="96.5" y1="56.45" x2="96.5" y2="55"/><line class="cls-4" x1="123.5" y1="60.5" x2="123.5" y2="60"/><line class="cls-4" x1="123.5" y1="47.69" x2="123.5" y2="47.5"/><line class="cls-4" x1="146.5" y1="60.5" x2="146.5" y2="60"/><line class="cls-4" x1="146.5" y1="46.65" x2="146.5" y2="46.5"/><path class="cls-4" d="M448.5,362.5c3.83-20.71,2.61-41.5,16-46" transform="translate(-395 -246)"/><path class="cls-4" d="M513.5,362.5c-3.83-20.71-2.61-41.5-16-46" transform="translate(-395 -246)"/><path class="cls-2" d="M515.25,363.5a1.85,1.85,0,0,0-.44-1.41,2,2,0,0,0-1.34-.53l.76.21-.08,0-.36,2.74c-.51.11.6,0,.5,0a2.43,2.43,0,0,0,.38-.13,2.09,2.09,0,0,0,1.27-1.31,4.13,4.13,0,0,0,.13-1,3.88,3.88,0,0,0,.06-.67,2.48,2.48,0,0,0-.06-.54q0-.26,0,0l-2.56,1.06a2.51,2.51,0,0,0,1.53.73,1.53,1.53,0,0,0,1.45-1.1,1.6,1.6,0,0,0-1.15-2,1.53,1.53,0,0,0-1.85,1.05,1.52,1.52,0,0,0,1,1.84l.09,0-.9-.69,0,.07-.15-1.15,0,.08,1.44-1.1h-.1l.76.21c.26.14,0,0-.07-.05a1.51,1.51,0,0,0-2.56,1.06c0,.22.07.43.08.64,0-.18,0-.18,0,0,0-.11,0-.11,0,0s-.17.53-.07.69,0,.08,0-.09.08-.18,0,0l.53-.54c.2-.06.2-.06,0,0,.15,0,.18,0,.07,0s-.46,0-.7.07a1.51,1.51,0,0,0-.35,2.74,2.11,2.11,0,0,0,.43.2c.47.06.54.07.2,0l-.66-.39.07.06-.38-.66c0-.2,0-.22,0-.05a1.5,1.5,0,0,0,3,0Z" transform="translate(-395 -246)"/><path class="cls-2" d="M448.67,363c0-.73-.15-1.44-.17-2.17a1.5,1.5,0,1,0-3,0c0,.73.16,1.44.17,2.17a1.5,1.5,0,0,0,3,0Z" transform="translate(-395 -246)"/><path class="cls-2" d="M448.33,364.67a1.5,1.5,0,0,0,0-3,1.5,1.5,0,0,0,0,3Z" transform="translate(-395 -246)"/><path class="cls-2" d="M448.17,365.83a1.5,1.5,0,0,0,0-3,1.5,1.5,0,0,0,0,3Z" transform="translate(-395 -246)"/><path class="cls-2" d="M513.67,365.5a1.5,1.5,0,0,0,0-3,1.5,1.5,0,0,0,0,3Z" transform="translate(-395 -246)"/><path class="cls-2" d="M513.5,365.33a1.5,1.5,0,0,0,0-3,1.5,1.5,0,0,0,0,3Z" transform="translate(-395 -246)"/><path class="cls-2" d="M448.33,365a1.5,1.5,0,0,0,0-3,1.5,1.5,0,0,0,0,3Z" transform="translate(-395 -246)"/></svg>